<svg width="18" height="18" fill="none" xmlns="http://www.w3.org/2000/svg"><path d="M15.429 4.714h-3.572V3.521a1.729 1.729 0 0 0-1.785-1.664H7.929a1.729 1.729 0 0 0-1.786 1.664v1.193H2.57a.714.714 0 1 0 0 1.429h.715V14a2.143 2.143 0 0 0 2.143 2.143h7.143A2.143 2.143 0 0 0 14.713 14V6.143h.715a.714.714 0 0 0 0-1.429ZM7.57 11.857a.714.714 0 0 1-1.428 0V9A.714.714 0 0 1 7.57 9v2.857Zm0-8.336c0-.114.15-.235.358-.235h2.143c.207 0 .357.121.357.235v1.193H7.57V3.521Zm4.286 8.336a.715.715 0 0 1-1.428 0V9a.714.714 0 0 1 1.428 0v2.857Z" fill="#fff"/></svg>