<svg width="28" height="28" fill="none" xmlns="http://www.w3.org/2000/svg"><path d="m6.247 19.5-.829.828a1.167 1.167 0 0 0 0 1.645 1.167 1.167 0 0 0 1.645 0l.829-.828A1.167 1.167 0 0 0 6.247 19.5ZM5.5 13.667A1.167 1.167 0 0 0 4.333 12.5H3.167a1.167 1.167 0 1 0 0 2.333h1.166A1.167 1.167 0 0 0 5.5 13.667ZM13.667 5.5a1.167 1.167 0 0 0 1.166-1.167V3.167a1.167 1.167 0 1 0-2.333 0v1.166A1.167 1.167 0 0 0 13.667 5.5Zm-7.42 2.392a1.167 1.167 0 0 0 1.645 0 1.167 1.167 0 0 0 0-1.645l-.829-.829a1.167 1.167 0 0 0-1.645 1.645l.829.829Zm14 .338c.306-.001.599-.123.816-.338l.829-.829a1.166 1.166 0 1 0-1.645-1.645l-.747.829a1.167 1.167 0 0 0 0 1.645c.206.204.48.325.77.338h-.023Zm3.92 4.27H23a1.167 1.167 0 1 0 0 2.333h1.167a1.167 1.167 0 1 0 0-2.333Zm-10.5 9.333A1.167 1.167 0 0 0 12.5 23v1.167a1.167 1.167 0 1 0 2.333 0V23a1.167 1.167 0 0 0-1.166-1.167Zm7.42-2.333a1.167 1.167 0 0 0-1.587 1.587l.828.828a1.167 1.167 0 0 0 1.645 0 1.167 1.167 0 0 0 0-1.645l-.886-.77Zm-7.42-12.25a6.417 6.417 0 1 0 6.416 6.417 6.428 6.428 0 0 0-6.416-6.417Zm0 10.5a4.083 4.083 0 1 1 0-8.167 4.083 4.083 0 0 1 0 8.167Z" fill="#F1C557"/></svg>